<?xml version="1.0" encoding="iso-8859-1"?>
<!-- Generator: Adobe Illustrator 19.0.0, SVG Export Plug-In . SVG Version: 6.00 Build 0)  -->
<svg version="1.1" id="Capa_1" xmlns="http://www.w3.org/2000/svg" xmlns:xlink="http://www.w3.org/1999/xlink" x="0px" y="0px"
	 viewBox="0 0 511.999 511.999" style="enable-background:new 0 0 511.999 511.999;" xml:space="preserve">
<polygon style="fill:#3B484A;" points="452.418,403.399 452.418,259.276 380.542,154.594 308.845,109.084 203.154,109.084 
	127.749,154.594 64.087,249.585 64.087,403.399 "/>
<g>
	<path style="fill:#E86D24;" d="M112.297,178.704H70.568h-0.009c-23.716,34.693-37.122,75.291-38.642,117.966l27.665,23.796
		l27.813-15.582c0-34.275,10.282-66.187,27.915-92.832L112.297,178.704z"/>
	<path style="fill:#E86D24;" d="M399.703,178.704h41.729h0.009c23.716,34.693,37.122,75.291,38.642,117.966l-27.665,23.796
		l-27.813-15.582c0-34.275-10.282-66.187-27.915-92.832L399.703,178.704z"/>
</g>
<g>
	<path style="fill:#FB8D4B;" d="M87.395,304.884v98.515H31.768v-98.515c0-2.744,0.046-5.479,0.148-8.214L87.395,304.884z"/>
	<path style="fill:#FB8D4B;" d="M171.299,97.136c-27.313,11.135-52.373,27.711-73.854,49.193
		c-10.05,10.05-19.034,20.888-26.877,32.375l44.743,33.348c19.924-30.094,49.239-53.457,83.746-65.871l4.098-37.097L171.299,97.136z
		"/>
	<path style="fill:#FB8D4B;" d="M424.605,304.884v98.515h55.627v-98.515c0-2.744-0.046-5.479-0.148-8.214L424.605,304.884z"/>
	<path style="fill:#FB8D4B;" d="M340.701,97.136c27.313,11.135,52.373,27.711,73.854,49.193
		c10.05,10.05,19.034,20.888,26.877,32.375l-44.743,33.348c-19.924-30.094-49.239-53.457-83.746-65.871l-4.098-37.097
		L340.701,97.136z"/>
</g>
<path style="fill:#FEEA61;" d="M125.087,375.451c-2.967-21.924,0.057-44.19,16.449-60.205
	c11.295-11.034,26.612-16.981,37.631-28.242c3.447-3.522,6.287-7.608,7.904-12.3c4.037-11.721,3.885-21.823,11.671-32.28
	c6.957-9.344,16.363-16.734,26.429-22.475c20.796-11.861,46.658-18.239,70.505-14.136c0,0-26.423,39.866,0,62.58
	c0,0,2.781-37.548,39.402-35.23c0,0-11.125,41.72,31.985,71.851c23.853,16.672,23.155,46.825,17.772,70.437l-112.403,16.711
	L125.087,375.451z"/>
<path style="fill:#FB8D4B;" d="M155.087,375.451c-2.967-21.924,0.057-44.19,16.449-60.205
	c11.295-11.034,26.612-16.981,37.631-28.242c3.447-3.522,6.287-7.608,7.904-12.3c4.037-11.721,3.885-21.823,11.671-32.28
	c6.957-9.344,16.363-16.734,26.429-22.475c12.157-6.934,26.045-11.988,40.25-14.176c-23.777-4.014-49.529,2.358-70.25,14.176
	c-10.065,5.741-19.472,13.131-26.429,22.475c-7.786,10.457-7.634,20.56-11.671,32.28c-1.616,4.692-4.457,8.777-7.904,12.3
	c-11.019,11.261-26.337,17.208-37.631,28.242c-16.392,16.015-19.416,38.28-16.449,60.205l147.346,16.712l12.982-1.93
	L155.087,375.451z"/>
<path style="fill:#E86D24;" d="M340.701,97.136l-27.758,49.044c-17.791-6.406-36.964-9.902-56.943-9.902s-39.152,3.495-56.943,9.902
	l-27.758-49.044C197.823,86.317,226.48,80.652,256,80.652S314.176,86.317,340.701,97.136z"/>
<path style="fill:#F3F5E6;" d="M487.931,375.451H24.068c-9.15,0-16.568,7.418-16.568,16.568v22.758
	c0,9.15,7.418,16.568,16.568,16.568h463.863c9.15,0,16.568-7.418,16.568-16.568v-22.758
	C504.5,382.868,497.082,375.451,487.931,375.451z"/>
<path style="fill:#D7D9CC;" d="M57.5,414.777v-22.758c0-9.15,7.418-16.568,16.568-16.568h-50c-9.15,0-16.568,7.418-16.568,16.568
	v22.758c0,9.15,7.418,16.568,16.568,16.568h50C64.918,431.346,57.5,423.928,57.5,414.777z"/>
<path d="M199.532,312.395c-4.142,0-7.5,3.358-7.5,7.5v10.22c0,4.142,3.358,7.5,7.5,7.5s7.5-3.358,7.5-7.5v-10.22
	C207.032,315.753,203.674,312.395,199.532,312.395z"/>
<path d="M312.467,312.395c-4.142,0-7.5,3.358-7.5,7.5v10.22c0,4.142,3.358,7.5,7.5,7.5s7.5-3.358,7.5-7.5v-10.22
	C319.967,315.753,316.609,312.395,312.467,312.395z"/>
<path d="M274.873,323.756c-3.119-2.726-7.856-2.407-10.583,0.711c-2.001,2.289-5.022,3.602-8.29,3.602s-6.289-1.313-8.29-3.602
	c-2.727-3.119-7.464-3.437-10.583-0.711s-3.437,7.464-0.711,10.583c4.85,5.548,11.988,8.73,19.584,8.73s14.734-3.182,19.584-8.73
	C278.31,331.221,277.991,326.482,274.873,323.756z"/>
<path d="M24.068,438.688h365.271c4.142,0,7.5-3.358,7.5-7.5s-3.358-7.5-7.5-7.5H24.068c-5,0-9.068-4.068-9.068-9.068v-22.758
	c0-5,4.068-9.068,9.068-9.068h463.863c5,0,9.068,4.068,9.068,9.068v22.758c0,5-4.068,9.068-9.068,9.068h-68.593
	c-4.142,0-7.5,3.358-7.5,7.5s3.358,7.5,7.5,7.5h68.593c13.271,0,24.068-10.797,24.068-24.068v-22.758
	c0-13.271-10.797-24.068-24.068-24.068h-0.2c0-23.848-0.153-47.7-0.154-71.564c-0.003-88.539-60.732-170.724-141.121-204.528
	c-56.309-23.678-121.324-24.77-177.999-1.662c-19.734,8.046-38.307,18.85-55.202,32.111c-3.258,2.558-3.826,7.272-1.269,10.53
	c2.557,3.258,7.272,3.826,10.53,1.269c14.06-11.036,29.356-20.25,45.554-27.444l20.191,35.675
	c-29.61,12.408-55.682,33.026-74.684,59.071l-32.661-24.343c6.101-8.313,12.875-16.284,20.204-23.767
	c2.898-2.959,2.849-7.708-0.111-10.606c-2.959-2.898-7.708-2.849-10.606,0.111c-9.618,9.821-18.348,20.439-25.952,31.56
	c-0.027,0.038-0.059,0.071-0.085,0.109c-25.959,38.315-40.1,84.126-40.1,130.413v63.066h-0.199C10.797,367.793,0,378.59,0,391.862
	v22.758C0,427.892,10.797,438.688,24.068,438.688z M72.458,189.311l32.797,24.445c-15.123,24.971-23.727,53.142-25.15,82.311
	l-40.354-5.975C42.136,254.13,53.356,219.566,72.458,189.311z M131.835,367.793c-1.503-20.267,3.511-36.172,14.942-47.34
	c4.962-4.848,10.924-8.696,17.235-12.77c7.019-4.531,14.277-9.216,20.515-15.591c4.539-4.638,7.781-9.719,9.635-15.103
	c1.436-4.17,2.353-8.011,3.239-11.726c1.627-6.82,3.032-12.71,7.356-18.518c5.734-7.701,13.852-14.578,24.129-20.439
	c17.232-9.828,36.855-14.983,54.882-14.342c-1.875,4.07-3.843,9.083-5.263,14.591c-5.084,19.711-0.837,36.091,12.281,47.369
	c2.138,1.838,5.128,2.306,7.736,1.235c2.608-1.07,4.398-3.528,4.63-6.338c0.006-0.076,0.678-7.715,4.815-15.021
	c4.219-7.45,10.293-11.736,18.475-13c-0.306,4.806-0.217,11.094,1.085,18.187c2.633,14.334,10.884,34.995,35.24,52.018
	c18.797,13.138,19.493,37.085,15.947,56.789H131.835V367.793z M439.542,189.31c19.102,30.256,30.322,64.821,32.706,100.781
	l-40.354,5.975c-1.423-29.169-10.027-57.339-25.15-82.311L439.542,189.31z M432.104,367.793v-56.594l40.627-6.015v62.61
	L432.104,367.793L432.104,367.793z M431.083,176.906l-32.662,24.344c-19.002-26.045-45.074-46.663-74.684-59.071l20.192-35.676
	c24.279,10.771,46.228,25.878,65.322,44.972C417.188,159.412,424.51,167.943,431.083,176.906z M329.891,100.853l-20.417,36.072
	c-17.243-5.512-35.201-8.303-53.475-8.303s-36.232,2.791-53.474,8.303l-20.416-36.073c23.561-8.536,48.376-12.857,73.89-12.857
	C281.514,87.995,306.329,92.317,329.891,100.853z M201.595,153.081c0.002,0,0.003-0.001,0.005-0.002
	c17.428-6.275,35.73-9.457,54.399-9.457c18.67,0,36.973,3.182,54.402,9.458c0.001,0,0.001,0.001,0.001,0.001
	c32.463,11.679,60.885,34.035,80.03,62.95c0.001,0.001,0.001,0.002,0.002,0.003c17.447,26.364,26.669,57.033,26.669,88.693v63.066
	H393.93c5.049-31.399-2.666-55.173-22.569-69.084c-38.038-26.585-29.412-62.3-29.036-63.771c0.579-2.171,0.154-4.487-1.158-6.312
	s-3.373-2.964-5.615-3.106c-1.237-0.079-2.473-0.118-3.672-0.118c-21.574,0-33.398,12.51-39.158,25.151
	c-5.422-18.136,9.029-40.486,9.206-40.754c1.4-2.113,1.639-4.79,0.634-7.116c-1.004-2.327-3.116-3.989-5.614-4.419
	c-5.22-0.898-10.668-1.354-16.192-1.354c-19.736,0-40.796,5.813-59.3,16.366c-12.085,6.893-21.751,15.14-28.729,24.511
	c-6.167,8.283-8.073,16.271-9.916,23.995c-0.803,3.364-1.633,6.844-2.831,10.321c-1.125,3.265-3.202,6.46-6.174,9.498
	c-5.063,5.175-11.313,9.209-17.929,13.479c-6.657,4.297-13.541,8.741-19.583,14.643c-14.547,14.212-21.083,33.721-19.494,58.069
	H94.895v-63.066c0-31.66,9.222-62.329,26.669-88.693c0-0.001,0.001-0.002,0.002-0.003
	C140.711,187.116,169.132,164.76,201.595,153.081z M39.268,305.184l40.627,6.015v56.595H39.268V305.184z"/>
<g>
</g>
<g>
</g>
<g>
</g>
<g>
</g>
<g>
</g>
<g>
</g>
<g>
</g>
<g>
</g>
<g>
</g>
<g>
</g>
<g>
</g>
<g>
</g>
<g>
</g>
<g>
</g>
<g>
</g>
</svg>
