<?xml version="1.0" encoding="iso-8859-1"?>
<!-- Generator: Adobe Illustrator 19.0.0, SVG Export Plug-In . SVG Version: 6.00 Build 0)  -->
<svg version="1.1" id="Capa_1" xmlns="http://www.w3.org/2000/svg" xmlns:xlink="http://www.w3.org/1999/xlink" x="0px" y="0px"
	 viewBox="0 0 491.52 491.52" style="enable-background:new 0 0 491.52 491.52;" xml:space="preserve">
<g>
	<circle style="fill:#45B39C;" cx="245.76" cy="245.76" r="245.76"/>
	<path style="fill:#45B39C;" d="M484.864,303.616L338.432,157.184l-0.512-0.512c0,0,0,0-0.512-0.512
		c-28.672-31.744-57.856-48.64-80.384-57.344S219.136,89.6,219.136,89.6l-16.384,48.64l-79.36,232.96l120.32,120.32
		c0.512,0,1.536,0,2.048,0C361.472,491.52,458.752,411.136,484.864,303.616z"/>
</g>
<path style="opacity:0.1;enable-background:new    ;" d="M484.864,303.616L338.432,157.184l-0.512-0.512c0,0,0,0-0.512-0.512
	c-28.672-31.744-57.856-48.64-80.384-57.344S219.136,89.6,219.136,89.6l-16.384,48.64l-79.36,232.96l120.32,120.32
	c0.512,0,1.536,0,2.048,0C361.472,491.52,458.752,411.136,484.864,303.616z"/>
<path style="fill:#F6C358;" d="M219.136,89.6c0,0,118.784,5.12,179.712,174.592L123.392,371.2L219.136,89.6z"/>
<path style="fill:#FCD462;" d="M123.392,371.2l275.456-107.008c-17.408-48.128-38.912-82.432-61.44-108.032L123.392,371.2z"/>
<path style="fill:#DC8744;" d="M202.752,138.24l16.896-48.64c0,0,118.784,5.12,179.712,174.592l-51.2,19.456
	C348.16,283.648,317.44,161.28,202.752,138.24z"/>
<g>
	<ellipse style="fill:#E56353;" cx="174.61" cy="298.64" rx="16.383" ry="16.383"/>
	<ellipse style="fill:#E56353;" cx="240.19" cy="295.41" rx="16.383" ry="16.383"/>
	<ellipse style="fill:#E56353;" cx="211.51" cy="206.82" rx="16.383" ry="16.383"/>
	<ellipse style="fill:#E56353;" cx="288.18" cy="243.29" rx="16.383" ry="16.383"/>
</g>
<g>
	<path style="fill:#DC8744;" d="M189.952,333.824c-6.144,11.776-23.552,14.848-38.4,6.656c-2.56-1.536-3.584-5.12-2.56-7.68
		c1.536-2.56,5.12-3.584,7.68-2.56c9.216,5.12,19.456,4.096,23.04-2.048c1.536-2.56,5.12-3.584,7.68-2.56
		S191.488,330.752,189.952,333.824z"/>
	<path style="fill:#DC8744;" d="M174.592,263.68c4.096-12.8,19.968-19.456,36.352-14.336c3.072,1.024,4.608,4.096,3.584,7.168
		c-1.024,3.072-4.096,4.608-7.168,3.584c-9.728-3.072-19.968,0-22.016,6.656c-1.024,3.072-4.096,4.608-7.168,3.584
		C175.616,269.824,173.568,266.752,174.592,263.68z"/>
	<path style="fill:#DC8744;" d="M307.712,283.136c-9.728,9.216-27.136,6.144-38.4-6.144c-2.048-2.56-2.048-6.144,0.512-8.192
		s6.144-2.048,8.192,0.512c7.168,7.68,17.408,10.24,22.528,5.12c2.56-2.048,6.144-2.048,8.192,0.512
		C310.272,276.992,309.76,280.576,307.712,283.136z"/>
	<path style="fill:#DC8744;" d="M239.104,195.584c6.656-11.776,24.064-13.824,38.912-5.632c2.56,1.536,3.584,5.12,2.048,7.68
		s-5.12,3.584-7.68,2.048c-8.704-5.12-19.456-4.608-23.04,1.536c-1.536,2.56-5.12,3.584-7.68,2.048S237.568,198.656,239.104,195.584
		z"/>
</g>
<g>
</g>
<g>
</g>
<g>
</g>
<g>
</g>
<g>
</g>
<g>
</g>
<g>
</g>
<g>
</g>
<g>
</g>
<g>
</g>
<g>
</g>
<g>
</g>
<g>
</g>
<g>
</g>
<g>
</g>
</svg>
